<?xml version="1.0" encoding="UTF-8"?>
<svg version="1.1" xmlns="http://www.w3.org/2000/svg" width="3419" height="1818">
<path d="M0 0 C0.33 0.66 0.66 1.32 1 2 C0.30777344 2.3810791 -0.38445312 2.7621582 -1.09765625 3.15478516 C-14.56362906 10.5774813 -27.9652855 18.08202299 -41.22338867 25.87207031 C-47.88037749 29.77896783 -54.58016204 33.59964009 -61.3125 37.375 C-70.87668308 42.74627022 -80.32093447 48.30453171 -89.74365234 53.91967773 C-97.43487768 58.49757987 -105.17028063 62.98997377 -112.9375 67.4375 C-122.8719657 73.13122903 -132.67560754 79.0153709 -142.44406128 84.98703003 C-148.90354722 88.93434137 -155.36421143 92.85421116 -162 96.5 C-172.51210022 102.27891082 -182.68176048 108.65696856 -192.91882324 114.90518188 C-197.9306504 117.96247263 -202.96105402 120.98768966 -208 124 C-229.43549521 136.83242029 -250.74336364 149.87386215 -272 163 C-272.9182959 163.5667041 -273.8365918 164.1334082 -274.78271484 164.71728516 C-287.86143441 172.7905984 -300.90081505 180.92613146 -313.9296875 189.07958984 C-317.01460047 191.00913226 -320.10083118 192.93654906 -323.1875 194.86328125 C-341.91062146 206.55166091 -360.56391126 218.34610703 -379.1796875 230.20458984 C-382.01451464 232.00924002 -384.85078646 233.81159797 -387.6875 235.61328125 C-398.11023332 242.23462338 -408.51201545 248.8857167 -418.86621094 255.61376953 C-421.06876807 257.04467564 -423.27259972 258.4736038 -425.4765625 259.90234375 C-438.84329877 268.57277199 -452.17494408 277.29679326 -465.49316406 286.04150391 C-468.73904896 288.17270009 -471.98599862 290.30226527 -475.23339844 292.43115234 C-495.25609956 305.56000946 -515.2564868 318.68020066 -534.82470703 332.48046875 C-538.09914004 334.76779435 -541.41864376 336.98421266 -544.75 339.1875 C-568.14223943 354.66325724 -591.04526781 370.88624213 -614 387 C-614.73412109 387.5151416 -615.46824219 388.0302832 -616.22460938 388.56103516 C-626.45455102 395.74459427 -636.61150223 403.02467786 -646.73388672 410.35888672 C-649.73770434 412.53424355 -652.74439844 414.705602 -655.75146484 416.87646484 C-657.25343607 417.96095004 -658.75506248 419.04591295 -660.25634766 420.13134766 C-663.9630802 422.81088435 -667.6738937 425.48432925 -671.39453125 428.14453125 C-680.41644573 434.60675371 -689.29557309 441.23024533 -698.10375977 447.98095703 C-703.93950392 452.44821999 -709.82141091 456.8443294 -715.75 461.1875 C-723.94406695 467.19387601 -732.03520356 473.32439284 -740.08349609 479.52441406 C-741.8725575 480.9018774 -743.66419802 482.27588885 -745.45703125 483.6484375 C-752.76468423 489.2472978 -760.01252129 494.91931678 -767.24267578 500.61767578 C-768.97020902 501.97656619 -770.70125465 503.33083709 -772.43359375 504.68359375 C-781.38139634 511.67676692 -790.20699509 518.81345488 -799 526 C-800.01320313 526.82757812 -801.02640625 527.65515625 -802.0703125 528.5078125 C-803.85893307 529.97030283 -805.64673301 531.43379755 -807.43359375 532.8984375 C-809.17345205 534.32316165 -810.91572016 535.74494709 -812.66015625 537.1640625 C-819.29039107 542.56364942 -825.83147745 548.06064784 -832.34716797 553.59716797 C-834.50448012 555.42817471 -836.66670789 557.25332395 -838.82885742 559.07861328 C-841.55568294 561.38207524 -844.27793243 563.69091939 -847 566 C-847.57395508 566.4861377 -848.14791016 566.97227539 -848.73925781 567.47314453 C-856.07419324 573.69224632 -863.27603829 580.02117526 -870.3359375 586.55078125 C-872.53090777 588.56873779 -874.7466621 590.54803445 -877 592.5 C-881.89839592 596.75067414 -886.65216551 601.15873847 -891.42236328 605.55175781 C-892.98383145 606.98515756 -894.5513616 608.41159656 -896.12109375 609.8359375 C-901.44283132 614.67204122 -906.66676785 619.56650014 -911.671875 624.734375 C-913.63182786 626.64171168 -915.62848091 628.42380335 -917.69921875 630.20703125 C-922.35670968 634.25217842 -926.71301562 638.56588084 -931.0625 642.9375 C-931.82626953 643.69740234 -932.59003906 644.45730469 -933.37695312 645.24023438 C-937.56788341 649.43833477 -941.57301916 653.73006347 -945.44311523 658.22485352 C-947.52265427 660.59592586 -949.74102634 662.80047301 -952 665 C-955.57083512 668.53313399 -958.96551225 672.13373095 -962.23046875 675.94921875 C-964.23786023 678.27566583 -966.30466638 680.54192686 -968.375 682.8125 C-973.10576093 688.06180977 -977.56997052 693.49623945 -982 699 C-982.92538408 700.13313697 -983.85118393 701.26593449 -984.77734375 702.3984375 C-992.58023837 711.98692716 -999.90103874 721.88069472 -1007 732 C-1007.44585449 732.63373535 -1007.89170898 733.2674707 -1008.35107422 733.92041016 C-1030.61446677 765.7876191 -1052.44795935 806.13552415 -1045.34765625 846.40234375 C-1039.80733461 869.0629726 -1025.3438411 885.85291596 -1005.74609375 897.8125 C-960.32197775 924.69882644 -905.44285624 930.93334642 -853.75 934.6875 C-852.51296829 934.77877167 -852.51296829 934.77877167 -851.25094604 934.87188721 C-822.47876432 936.96021679 -793.7004726 937.1883226 -764.86767578 937.18530273 C-760.89757686 937.18522197 -756.92759456 937.19210422 -752.95751953 937.20581055 C-673.76340154 937.47461881 -594.12070679 931.87199039 -517 913 C-515.91557617 912.73638672 -514.83115234 912.47277344 -513.71386719 912.20117188 C-438.08141277 893.54438714 -360.39563595 858.23616787 -317.71679688 789.94677734 C-314.97452479 785.38635657 -312.4421675 780.72696109 -310 776 C-309.65485352 775.33564941 -309.30970703 774.67129883 -308.95410156 773.98681641 C-299.58428582 755.70027929 -293.76769124 736.15449485 -290 716 C-289.83483887 715.1219873 -289.66967773 714.24397461 -289.49951172 713.33935547 C-274.83836815 630.87610843 -305.60423493 544.32214658 -341 471 C-341.5038623 469.95376465 -342.00772461 468.9075293 -342.52685547 467.82958984 C-349.23994778 453.96431262 -356.46716324 440.45243477 -364.19140625 427.12548828 C-365.78539269 424.37086971 -367.36746114 421.60973965 -368.94602966 418.8462677 C-378.93117812 401.39263044 -389.65852457 384.60167398 -401 368 C-402.29496911 366.08901466 -403.58927461 364.17757941 -404.8828125 362.265625 C-406.04613023 360.55157763 -407.21014466 358.83800279 -408.375 357.125 C-409.15085449 355.98393799 -409.15085449 355.98393799 -409.94238281 354.81982422 C-412.49705864 351.09232773 -415.11611864 347.48525947 -418 344 C-417.67 343.34 -417.34 342.68 -417 342 C-405.96674062 351.73592421 -395.64120646 362.20487876 -385.25317383 372.61645508 C-382.69056177 375.1847941 -380.12344168 377.74857308 -377.55498791 380.31106853 C-375.54983928 382.31257917 -373.54710829 384.31649539 -371.54506874 386.32111549 C-370.1468004 387.72035829 -368.74654848 389.11761801 -367.34623718 390.51481628 C-362.86473789 395.01270974 -358.51467572 399.56188074 -354.38960266 404.39021301 C-352.68695535 406.36264698 -350.87398767 408.19063259 -349 410 C-345.87589016 413.08245505 -342.97298912 416.27509772 -340.11328125 419.6015625 C-337.30263026 422.79146953 -334.40120586 425.89255891 -331.5 429 C-326.90908909 433.926108 -322.37749575 438.88212442 -318 444 C-317.12377679 445.02220303 -316.24746655 446.04433146 -315.37109375 447.06640625 C-313.85672185 448.83300549 -312.3428857 450.60005129 -310.83056641 452.3684082 C-307.56430841 456.18544894 -304.27837012 459.98450275 -300.97900391 463.77294922 C-295.19427371 470.41869405 -289.54022474 477.14809954 -284 484 C-283.00593078 485.21283208 -282.01108689 486.42502948 -281.015625 487.63671875 C-274.85181901 495.15467299 -268.82447152 502.75726897 -262.94848633 510.50244141 C-259.57759563 514.94540575 -256.16409324 519.35064688 -252.71655273 523.734375 C-246.05200598 532.22168032 -239.71420469 540.88136339 -233.56689453 549.74902344 C-231.89859329 552.14567932 -230.21453275 554.53066937 -228.52734375 556.9140625 C-221.08313593 567.44605743 -213.87617744 578.08862953 -207 589 C-206.49114258 589.80518066 -205.98228516 590.61036133 -205.45800781 591.43994141 C-197.27271202 604.42445774 -189.46969531 617.59172267 -182 631 C-181.45230957 631.97501465 -180.90461914 632.9500293 -180.34033203 633.95458984 C-155.81904929 677.75708662 -133.98847315 727.43023956 -130 778 C-129.93296875 778.82870605 -129.8659375 779.65741211 -129.796875 780.51123047 C-126.76416311 820.87691727 -134.5681564 862.20455178 -161 894 C-161.45632813 894.56025879 -161.91265625 895.12051758 -162.3828125 895.69775391 C-171.24140999 906.5548652 -180.88682348 915.77253351 -192.0625 924.25 C-192.69897461 924.73355957 -193.33544922 925.21711914 -193.99121094 925.71533203 C-197.63176534 928.41934687 -201.35685619 930.86028046 -205.25561523 933.17871094 C-206.14683578 933.70978455 -207.03805634 934.24085815 -207.95628357 934.7880249 C-208.63070999 935.18797668 -209.30513641 935.58792847 -210 936 C-128.19720663 936.03428467 -46.39441239 936.06608285 35.40838623 936.08468628 C36.61940911 936.08496239 37.830432 936.08523851 39.07815254 936.08552299 C65.39797765 936.09150903 91.71780283 936.09704936 118.03762813 936.10213066 C130.94517007 936.1046253 143.85271199 936.10721841 156.76025391 936.10986328 C158.04469828 936.1101248 159.32914266 936.11038632 160.6525096 936.11065576 C202.27277483 936.11917596 243.89303462 936.13419673 285.51329656 936.15259444 C328.28935823 936.17146869 371.06541688 936.18377299 413.84148263 936.18782998 C419.88557085 936.18840628 425.92965905 936.18905755 431.97374725 936.18975449 C433.16329136 936.18988933 434.35283546 936.19002418 435.57842636 936.19016311 C454.71416602 936.19252504 473.84989637 936.2017971 492.98563224 936.21366407 C512.23114431 936.22545125 531.47664715 936.22993277 550.72216269 936.22700275 C562.15127603 936.22548351 573.58035559 936.22952003 585.00946282 936.24159509 C592.65331424 936.24911794 600.29714366 936.24931112 607.94099663 936.24366363 C612.29043199 936.24065644 616.63980367 936.24072271 620.98923209 936.24976636 C668.59007529 937.4914664 668.59007529 937.4914664 710 917 C717.69406967 906.6261582 719.89976774 895.96598759 718.375 883.25 C711.16891331 840.24593425 678.50945723 802.03749159 651.07519531 769.82714844 C648.25882059 766.51434125 645.51964814 763.15327194 642.8125 759.75 C638.11103829 753.96031569 632.99557661 748.58070952 627.84692383 743.18847656 C624.59711372 739.78196702 621.40406487 736.35120871 618.3203125 732.79296875 C615.66400321 729.7282566 612.90745496 726.83094299 610 724 C607.153714 721.22861626 604.46217316 718.40059857 601.88061523 715.38500977 C597.86738359 710.78315079 593.60706086 706.46288631 589.28515625 702.15234375 C588.47058456 701.33681534 587.65601288 700.52128693 586.8167572 699.68104553 C585.10440807 697.96801992 583.39081158 696.25624035 581.67602539 694.5456543 C579.06997985 691.94496448 576.46931478 689.33898044 573.86914062 686.73242188 C572.19563301 685.05957514 570.52181518 683.38703866 568.84765625 681.71484375 C568.0797023 680.94486557 567.31174835 680.17488739 566.52052307 679.38157654 C562.3955321 675.2742141 558.19196743 671.32690906 553.76548767 667.54530334 C550.86580037 665.00725306 548.19163599 662.25483165 545.5 659.5 C541.38656768 655.33439385 537.22256425 651.33129935 532.7578125 647.5390625 C530.34126652 645.42324224 528.12190207 643.13385095 525.87353516 640.84228516 C524.06568106 639.06458552 522.20343626 637.40264735 520.28125 635.75 C515.39363897 631.50088094 510.70100551 627.05856967 506 622.60546875 C502.02010953 618.85100177 497.97530689 615.19429109 493.84375 611.60742188 C491.36086481 609.44278786 488.9293206 607.22443814 486.5 605 C482.70990918 601.54356229 478.88943967 598.13156146 475.015625 594.76953125 C472.71392236 592.74885044 470.45235621 590.68687382 468.1875 588.625 C464.74621795 585.51471149 461.23678702 582.53521688 457.625 579.625 C453.07299693 575.94492991 448.76747752 572.07477116 444.48535156 568.09082031 C440.35118772 564.26705324 436.0350225 560.71157972 431.6484375 557.1796875 C429.02724881 555.02242601 426.50845719 552.78689 424 550.5 C419.80270966 546.67829137 415.46289769 543.08525811 411.05078125 539.515625 C407.47943376 536.57074948 403.9878836 533.54279913 400.5 530.5 C395.3457376 526.00599436 390.12811936 521.61562043 384.8125 517.3125 C381.47717174 514.57011898 378.20673207 511.75802253 374.9375 508.9375 C370.30408257 504.94499315 365.61931316 501.04717575 360.8203125 497.25390625 C357.03536086 494.22909033 353.2996475 491.14606383 349.5625 488.0625 C348.45370483 487.14778931 348.45370483 487.14778931 347.32250977 486.21459961 C345.87496907 485.02038255 344.42745843 483.82612904 342.97998047 482.63183594 C338.66404659 479.07478267 334.33100906 475.53866941 330 472 C328.73736328 470.96552734 328.73736328 470.96552734 327.44921875 469.91015625 C324.63475655 467.60438203 321.81786486 465.30161481 319 463 C318.40026367 462.50983398 317.80052734 462.01966797 317.18261719 461.51464844 C309.60637753 455.32630573 302.00003492 449.18525211 294.28979492 443.16455078 C289.81602474 439.66267951 285.40165077 436.09195789 281 432.5 C274.29838027 427.03352401 267.52914887 421.66155938 260.71337891 416.33837891 C257.82677164 414.08355118 254.94399791 411.82385208 252.0625 409.5625 C251.48814209 409.11189209 250.91378418 408.66128418 250.32202148 408.19702148 C246.00519826 404.80432933 241.718485 401.37524405 237.4375 397.9375 C232.28555765 393.80244064 227.09098923 389.73147637 221.84350586 385.71850586 C217.86997939 382.67778341 213.92933334 379.59757665 210 376.5 C205.08107377 372.62427775 200.13695689 368.78413213 195.16699219 364.97387695 C190.51044197 361.40084342 185.87946175 357.79553222 181.25 354.1875 C172.54055947 347.40474046 163.78060936 340.69025663 155 334 C153.33463442 332.73047006 151.66926987 331.46093876 150.00390625 330.19140625 C146.47847593 327.50440489 142.95234679 324.81832372 139.42578125 322.1328125 C135.75526955 319.33756133 132.08610291 316.54055789 128.41796875 313.7421875 C120.3863716 307.61614008 112.35265348 301.49542796 104.2578125 295.453125 C101.57236059 293.4394723 98.90651359 291.40088508 96.2421875 289.359375 C87.18525112 282.42243261 78.09115637 275.56895146 68.81005859 268.93457031 C62.95491119 264.73186702 57.2184544 260.38640315 51.5 256 C43.58140719 249.9286459 35.56563652 244.02117101 27.45703125 238.20703125 C22.79725861 234.86363667 18.17664799 231.46848405 13.5625 228.0625 C12.77544678 227.48169678 11.98839355 226.90089355 11.17749023 226.30249023 C7.98568628 223.9459125 4.79511653 221.58766664 1.60449219 219.22949219 C-9.13956362 211.29090179 -19.92426752 203.41340208 -30.76611328 195.60888672 C-33.76191015 193.45125816 -36.75473252 191.28952587 -39.74731445 189.12744141 C-41.24953262 188.0421714 -42.75197422 186.95721059 -44.25463867 185.87255859 C-47.98294395 183.18126271 -51.70880052 180.48670091 -55.4296875 177.78515625 C-65.74012898 170.30623223 -76.13890677 162.96183716 -86.58984375 155.68066406 C-90.73075359 152.79310092 -94.86520861 149.89631462 -99 147 C-96 146 -96 146 -94.02848816 146.67673969 C-93.27425064 147.05551353 -92.52001312 147.43428736 -91.74291992 147.82453918 C-90.87435364 148.25466309 -90.00578735 148.68478699 -89.11090088 149.12794495 C-88.16035828 149.61141891 -87.20981567 150.09489288 -86.23046875 150.59301758 C-85.22667175 151.09374786 -84.22287476 151.59447815 -83.18865967 152.11038208 C-79.85005635 153.77887249 -76.51882885 155.46156949 -73.1875 157.14453125 C-70.86116761 158.31109358 -68.53441977 159.47682774 -66.20727539 160.64176941 C-61.31129377 163.09437102 -56.41903954 165.55427202 -51.52929688 168.01928711 C-44.70176076 171.46116166 -37.86758931 174.8896852 -31.03201866 178.31556857 C-25.66577211 181.00575281 -20.30159062 183.70005142 -14.9375 186.39453125 C-13.81894623 186.95626352 -12.70039246 187.5179958 -11.54794312 188.09675026 C0.680617 194.24244257 12.86388208 200.45831442 24.95849609 206.86381531 C29.95737597 209.5112958 34.98850108 212.09346902 40.03125 214.65625 C40.95812622 215.12889282 41.88500244 215.60153564 42.83996582 216.08850098 C45.72605017 217.56016939 48.61290963 219.03030629 51.5 220.5 C69.79057261 229.81094495 87.98765592 239.27661504 106.0625 249 C116.04255381 254.35904196 126.04375224 259.67656082 136.05984497 264.96792603 C149.46882309 272.05198145 162.83819936 279.20248411 176.15673828 286.45556641 C179.09953245 288.05406511 182.04713509 289.64337377 184.99609375 291.23046875 C195.73290449 297.01349124 206.40677219 302.88916802 217.00854492 308.91625977 C224.76347381 313.31887611 232.56248286 317.63834292 240.375 321.9375 C258.61122707 331.97943699 276.80817938 342.07380458 294.76635742 352.60766602 C301.92409948 356.80289979 309.11647233 360.93431206 316.32653809 365.03863525 C327.99606406 371.68209885 339.59681692 378.43165078 351.13623047 385.29882812 C354.21369528 387.12694192 357.29587382 388.94691744 360.37890625 390.765625 C374.88721276 399.3300418 389.31991867 408.01047572 403.70629883 416.77783203 C407.84775453 419.30096609 411.99477925 421.81475662 416.14453125 424.32421875 C431.17883481 433.41929843 446.13105942 442.63618747 461 452 C461.83289551 452.52400391 462.66579102 453.04800781 463.52392578 453.58789062 C469.02239639 457.048451 474.51260222 460.52191582 480 464 C480.85239258 464.53947266 481.70478516 465.07894531 482.58300781 465.63476562 C496.1057083 474.19568664 509.55486609 482.86259295 522.93481445 491.64489746 C525.30172429 493.19798093 527.66943017 494.74984751 530.03710938 496.30175781 C534.83925386 499.45010131 539.63876066 502.60243884 544.43695068 505.75680542 C546.36623029 507.02460227 548.29610278 508.29149746 550.22662354 509.55740356 C561.72321896 517.09826336 573.0788248 524.78912105 584.27178955 532.77359009 C587.97739446 535.40324123 591.73895426 537.95066829 595.5 540.5 C608.98352386 549.68922287 622.26551775 559.15068587 635.4765625 568.7265625 C638.44366447 570.87691382 641.41750504 573.01730316 644.3984375 575.1484375 C655.25818471 582.92415138 665.907867 590.95294245 676.50292969 599.08496094 C678.82443461 600.86535638 681.14951277 602.64092349 683.4765625 604.4140625 C698.57506956 615.92164823 713.57267995 627.53695149 728.25585938 639.57177734 C729.82908924 640.86004648 731.40648248 642.14322725 732.984375 643.42578125 C738.43099627 647.85706416 743.80959896 652.36163775 749.15820312 656.91015625 C752.63280269 659.8600541 756.14475694 662.7568272 759.6875 665.625 C764.13903808 669.24834495 768.42382455 673.01963872 772.66796875 676.8828125 C774.75823889 678.78051169 776.86986115 680.64733415 779 682.5 C782.90207014 685.89857722 786.74192981 689.36373993 790.58203125 692.83203125 C792.5990169 694.64047557 794.63491596 696.4198734 796.6875 698.1875 C802.58592814 703.33092933 808.25360995 708.72928363 813.95703125 714.08642578 C815.93391653 715.93810203 817.918928 717.78063047 819.90625 719.62109375 C828.64904285 727.74543913 837.17687933 736.07136397 845.625 744.5 C846.14037323 745.01278503 846.65574646 745.52557007 847.18673706 746.05389404 C852.47671867 751.32284886 857.69896838 756.61058563 862.52685547 762.3125 C864.11035177 764.12640893 865.78113559 765.8145189 867.5 767.5 C870.53594925 770.48872337 873.34508659 773.61706479 876.125 776.84375 C878.17359094 779.19962958 880.27203002 781.5050746 882.375 783.8125 C886.26802656 788.1263943 889.96451424 792.56782249 893.6171875 797.0859375 C895.74227847 799.68481925 897.90496958 802.24227249 900.08984375 804.79052734 C905.21306436 810.7741226 910.08531188 816.88386764 914.7265625 823.25390625 C915.63994646 824.50630695 916.55705084 825.75599757 917.4765625 827.00390625 C968.52989721 896.29057478 968.52989721 896.29057478 965 932 C964.37536178 933.35353216 963.71605656 934.69252716 963 936 C963.97682236 935.99907821 964.95364471 935.99815641 965.96006775 935.99720669 C1174.07376458 935.80310614 1174.07376458 935.80310614 1236.4375 936.375 C1237.5529784 936.3850985 1238.6684568 936.39519699 1239.81773758 936.4056015 C1267.49398265 936.6586848 1295.16892294 937.01218738 1322.84388733 937.37573242 C1340.70835241 937.61037943 1358.57288584 937.83948727 1376.4375 938.0625 C1377.33804816 938.07375821 1378.23859632 938.08501642 1379.16643381 938.09661579 C1437.1847865 938.82049264 1495.198941 939.21865651 1553.22193795 939.24494404 C1558.92580907 939.24764564 1564.6296669 939.25313805 1570.33353263 939.26139694 C1684.75000214 947.31550367 1684.75000214 947.31550367 1789.1875 917.625 C1791.61739876 914.10583628 1792.45019822 911.19938998 1792 907 C1786.3835437 886.81479645 1759.44833108 873.28020692 1743 863 C1742.40316406 862.62697754 1741.80632813 862.25395508 1741.19140625 861.86962891 C1720.67585791 849.14045223 1699.27418524 837.95077806 1677.79418945 826.96166992 C1675.08419161 825.56732142 1672.38746515 824.14984008 1669.69604492 822.7199707 C1657.27308094 816.12039805 1644.70640819 809.85204541 1632.0625 803.6875 C1631.02898407 803.18255005 1629.99546814 802.6776001 1628.93063354 802.15734863 C1615.05435893 795.37959011 1601.13426857 788.72873791 1587.1015625 782.28125 C1561.22783296 770.37528578 1535.58906944 757.94382459 1509.99951172 745.44091797 C1506.42456749 743.69455111 1502.84778453 741.95200633 1499.27001953 740.21142578 C1472.849121 727.35596669 1446.55217733 714.29125441 1420.41323853 700.87141418 C1419.48151825 700.39306625 1418.54979797 699.91471832 1417.58984375 699.421875 C1416.67689545 698.95307419 1415.76394714 698.48427338 1414.82333374 698.00126648 C1405.56763318 693.2543489 1396.26685261 688.59945411 1386.94213867 683.98974609 C1380.62771138 680.85752615 1374.37110299 677.63090956 1368.140625 674.3359375 C1356.98774038 668.43808885 1345.74510058 662.71950643 1334.5 657 C1322.53869854 650.91621798 1310.5894791 644.8168963 1298.72509766 638.54577637 C1291.69335854 634.83008185 1284.62707021 631.18392924 1277.55133057 627.55288696 C1267.33412234 622.30869789 1257.12784735 617.04673378 1246.9765625 611.67578125 C1240.1710078 608.07855948 1233.33615679 604.5386555 1226.5 601 C1217.98227184 596.59006633 1209.4746739 592.16276998 1200.9934082 587.68310547 C1196.83499555 585.48787849 1192.67011277 583.30605547 1188.49609375 581.140625 C1179.23438379 576.33380538 1170.00973789 571.4818617 1160.875 566.4375 C1150.05078593 560.46920606 1139.04668178 554.8640826 1128.03955078 549.24365234 C1118.07986769 544.15561811 1108.18426238 538.99050331 1098.40234375 533.56640625 C1089.8622764 528.86092013 1081.18088991 524.43807275 1072.5 520 C1062.08726734 514.67645518 1051.73469272 509.28494714 1041.50390625 503.6171875 C1032.92850653 498.89749382 1024.2145233 494.45537597 1015.5 490 C1005.04087751 484.6526081 994.64117654 479.23728048 984.36328125 473.546875 C976.16056864 469.03105283 967.8338596 464.76689314 959.5 460.5 C950.31239642 455.79599434 941.1562238 451.0626799 932.125 446.0625 C921.9253091 440.41708969 911.55634185 435.1187963 901.17773438 429.81274414 C892.43053747 425.33840134 883.71855924 420.82764896 875.125 416.0625 C864.55648222 410.20404605 853.79475893 404.73525681 843.03424072 399.24099731 C833.95913351 394.60494121 824.91218524 389.94461962 816 385 C803.82125535 378.24629942 791.39424665 371.97382027 778.99743652 365.633255 C778.21839966 365.23478867 777.43936279 364.83632233 776.63671875 364.42578125 C775.86992798 364.03363937 775.10313721 363.6414975 774.31311035 363.23747253 C766.59920132 359.28924441 758.93212476 355.2555626 751.27441406 351.19970703 C746.69197248 348.78256256 742.09477179 346.39359574 737.5 344 C730.57461335 340.39134101 723.65632272 336.77000366 716.75 333.125 C707.84711715 328.42796181 698.90876146 323.80013751 689.96972656 319.17236328 C682.72492079 315.41946009 675.49586655 311.63866191 668.28125 307.828125 C660.19818998 303.56514129 652.07968649 299.3707989 643.96435547 295.16967773 C637.50538631 291.82392989 631.05630838 288.46108918 624.625 285.0625 C613.64552805 279.26375514 602.60686315 273.5792192 591.57492065 267.88121033 C585.2128946 264.59464286 578.85620821 261.29780318 572.5 258 C560.15892628 251.59841774 547.81124935 245.2096612 535.4616394 238.8245697 C531.29142086 236.66827802 527.12208734 234.51028228 522.953125 232.3515625 C503.98696064 222.53223807 484.99845792 212.75668517 466 203 C465.24158813 202.61048157 464.48317627 202.22096313 463.70178223 201.81964111 C452.37504481 196.00253481 441.04472534 190.1924422 429.71124268 184.38848877 C427.860726 183.44079728 426.01026453 182.49299799 424.15985107 181.54510498 C390.84105233 164.47104649 390.84105233 164.47104649 357.36791992 147.70239258 C351.61013623 144.84624886 345.88101787 141.95209418 340.20990372 138.92772007 C325.99318356 131.3592645 311.56382022 124.20841083 297.15701008 117.01134229 C293.29952074 115.08388522 289.44302746 113.15443688 285.58636475 111.22532654 C279.1120043 107.98724247 272.63681329 104.75082416 266.16113281 101.51538086 C258.73971407 97.80738727 251.31973589 94.09652354 243.9005053 90.3841539 C237.46574157 87.16448133 231.03017801 83.94641167 224.59397864 80.72960991 C220.77853275 78.82265522 216.96333736 76.91520466 213.14887238 75.00628853 C197.71404059 67.28296401 182.26365125 59.61144788 166.66497803 52.22239685 C160.05596925 49.08851986 153.52805531 45.79855432 147 42.5 C137.57165155 37.75754028 128.11246192 33.09380087 118.57470703 28.57446289 C111.90728716 25.40787366 105.26797538 22.18687698 98.63671875 18.9453125 C97.25461464 18.26981606 97.25461464 18.26981606 95.84458923 17.58067322 C91.17788873 15.29902179 86.51253297 13.01465501 81.84838867 10.7277832 C80.11509369 9.87967493 78.38177755 9.03160991 76.6484375 8.18359375 C75.45144478 7.59525253 75.45144478 7.59525253 74.23027039 6.99502563 C70.53217973 5.18744241 66.85604669 3.45334429 63 2 C63 1.34 63 0.68 63 0 C69.60196656 1.92160923 76.10519228 4.02625495 82.578125 6.34375 C83.93354401 6.82545654 83.93354401 6.82545654 85.31634521 7.31689453 C87.27034997 8.01157088 89.22397214 8.70732417 91.17724609 9.40405273 C96.5382265 11.31613291 101.90214767 13.21993761 107.265625 15.125 C108.94996643 15.72362854 108.94996643 15.72362854 110.66833496 16.33435059 C123.10219003 20.75143772 135.5508155 25.12634632 148 29.5 C160.95196744 34.05037089 173.90323118 38.60214759 186.8359375 43.20703125 C215.53949397 53.42380578 244.33051526 63.37114617 273.15258026 73.2470932 C282.27315291 76.37261029 291.38809377 79.51376441 300.49609375 82.67578125 C360.82806248 103.61792951 421.40577339 123.83582306 481.98338401 144.053774 C486.87705194 145.68715958 491.77025332 147.32193722 496.66326904 148.95727539 C528.67130158 159.6537683 560.72262577 170.19251724 592.88599396 180.41479778 C601.43733875 183.13430639 609.97502259 185.89477691 618.5078125 188.671875 C619.81924943 189.09837431 621.13069645 189.52484257 622.44215393 189.95127869 C624.37418145 190.57955528 626.3061976 191.20786667 628.23816395 191.83633137 C661.74947148 202.73569869 695.3470442 213.34236713 729.00964355 223.76428223 C732.34666664 224.79746653 735.68326479 225.83201562 739.01973629 226.8669796 C813.45748912 249.95597472 888.1219052 272.41453919 1296 367 C1297.06283203 367.12987305 1298.12566406 367.25974609 1299.22070312 367.39355469 C1312.22953847 368.96358654 1325.22418795 369.21899845 1338.3125 369.3125 C1339.10720703 369.32221832 1339.90191406 369.33193665 1340.72070312 369.34194946 C1358.12763471 369.5228961 1378.96936593 369.10494593 1392.44140625 356.78125 C1396.38964325 352.26897914 1396.49140295 348.1127078 1396.37109375 342.28125 C1394.09408319 322.14768296 1374.81829876 304.44799226 1361.09326172 290.83251953 C1359.49337171 289.2434164 1357.90455586 287.64379625 1356.31640625 286.04296875 C1350.60483432 280.32441479 1344.78194265 274.98317253 1338.43676758 269.96533203 C1335.92725956 267.94133247 1333.55428267 265.81332252 1331.1875 263.625 C1325.62650879 258.56476156 1319.73071235 253.98701399 1313.78808594 249.38964844 C1312.08233738 248.06399022 1310.38684971 246.72653812 1308.6953125 245.3828125 C1287.26133425 228.36768759 1265.02470829 212.42443641 1242.56884766 196.79492188 C1240.09457885 195.06608475 1237.63015997 193.32410576 1235.16796875 191.578125 C1215.56833603 177.73774275 1195.42723133 164.69461147 1175.36029053 151.54663086 C1173.29392738 150.1926022 1171.22809443 148.83777158 1169.16259766 147.48242188 C1147.59878073 133.33858781 1125.85902875 119.47884454 1103.96630859 105.85009766 C1101.02212585 104.01379997 1098.08260834 102.17026718 1095.14453125 100.32421875 C1081.61798631 91.83064999 1068.00145724 83.49440453 1054.33447266 75.22973633 C1050.25990326 72.7650726 1046.19091645 70.29140845 1042.125 67.8125 C1027.59718523 58.95913624 1013.00300004 50.22390346 998.36538696 41.55331421 C997.71113739 41.16575958 997.05688782 40.77820496 996.3828125 40.37890625 C995.73927826 39.99771637 995.09574402 39.61652649 994.43270874 39.2237854 C989.06802628 36.04428181 983.71814592 32.84056579 978.375 29.625 C971.49862825 25.48752817 964.5991826 21.39070494 957.6875 17.3125 C955.85414427 16.22920458 954.02081036 15.1458722 952.1875 14.0625 C948.8990144 12.11952476 945.60705766 10.18265646 942.3125 8.25 C940.93734638 7.43776003 939.56233572 6.62527795 938.1875 5.8125 C937.56512451 5.45003174 936.94274902 5.08756348 936.30151367 4.71411133 C932.11374629 2.22749258 932.11374629 2.22749258 931 0 C936.97890361 1.88388289 942.69773892 4.06591874 948.3984375 6.66796875 C949.56748375 7.19520538 949.56748375 7.19520538 950.76014709 7.73309326 C953.30043611 8.88018803 955.8377617 10.03367504 958.375 11.1875 C960.1705209 12.0003761 961.96617732 12.81295291 963.76196289 13.62524414 C968.31853351 15.68806595 972.87236933 17.75684127 977.42498779 19.82836914 C979.82609853 20.92087481 982.22767011 22.01235989 984.62939453 23.10351562 C1028.82408947 43.19022583 1072.82104975 63.70176337 1116.51171875 84.86328125 C1121.36322616 87.21220113 1126.22316257 89.54238253 1131.09033203 91.85864258 C1159.99021009 105.61884705 1188.68653893 119.79305559 1217.31962204 134.0983429 C1219.34915116 135.11208856 1221.37902132 136.12514841 1223.40896606 137.13806152 C1236.93764747 143.89041186 1250.43802801 150.68201675 1263.79296875 157.77392578 C1267.94360732 159.97720517 1272.11772221 162.13246583 1276.30078125 164.2734375 C1276.95966843 164.61082443 1277.6185556 164.94821136 1278.29740906 165.29582214 C1279.62370082 165.97476364 1280.95005089 166.65359123 1282.27645874 167.33230591 C1293.17489435 172.91359478 1304.02470782 178.56074269 1314.74755859 184.47436523 C1321.78849294 188.35550095 1328.88065597 192.13537309 1335.98364258 195.90112305 C1347.49682812 202.00801704 1358.9062801 208.26315557 1370.2265625 214.72265625 C1375.48921158 217.72245743 1380.78679527 220.65624402 1386.09033203 223.58300781 C1398.1692235 230.2517925 1410.12606844 237.08597881 1421.96044922 244.17919922 C1424.74314747 245.84613605 1427.52898144 247.50766208 1430.31582642 249.16764832 C1482.70180391 280.38026025 1535.43560665 313.01016583 1580 355 C1580.86496094 355.81082031 1581.72992187 356.62164062 1582.62109375 357.45703125 C1592.19286423 366.70028542 1600.24121374 376.95026241 1606 389 C1606.33902344 389.67289062 1606.67804687 390.34578125 1607.02734375 391.0390625 C1609.95306606 397.59160186 1610.21134722 404.88610098 1608.19140625 411.74609375 C1604.0438136 421.17505005 1596.2087969 425.9817156 1586.99609375 429.87890625 C1559.73589625 440.07926698 1530.22036526 440.39296155 1501.5 440.3125 C1500.13048311 440.31057377 1498.76096609 440.30873353 1497.39144897 440.30697632 C1473.45565822 440.26249671 1449.67183849 439.33585526 1425.82299805 437.24676514 C1422.95991117 436.99649574 1420.09624009 436.75395088 1417.23242188 436.51220703 C1339.1815635 429.84601233 1261.57421071 417.84924042 1164 401 C1163.31650482 400.88042183 1162.63300964 400.76084366 1161.92880249 400.63764191 C1112.48041688 391.98597137 1063.19405509 382.52706491 1013.92541504 372.90968323 C1000.28841295 370.24790455 986.64696565 367.61028358 973 365 C1002.58677799 377.86985325 1032.18037409 390.7239218 1061.77941895 403.5655365 C1069.8818603 407.08083287 1077.9839793 410.59687146 1086.0859375 414.11328125 C1114.69311723 426.529738 1114.69311723 426.529738 1143.30639648 438.93212891 C1157.22336254 444.96121713 1171.13542841 451.00160193 1185.04833984 457.04003906 C1197.69749532 462.52992318 1210.34681326 468.01941273 1223 473.5 C1236.35678367 479.28563675 1249.7097464 485.0800692 1263.0625 490.875 C1264.18874786 491.36377625 1265.31499573 491.85255249 1266.47537231 492.35614014 C1275.83402446 496.41770744 1285.1925868 500.47948166 1294.55114746 504.54125977 C1302.6798913 508.06926613 1310.80866772 511.59719742 1318.9375 515.125 C1320.06560089 515.61458191 1321.19370178 516.10416382 1322.35598755 516.60858154 C1334.56928528 521.90889367 1346.78306808 527.20806934 1359 532.5 C1371.21832215 537.79253285 1383.43346453 543.09238031 1395.64813232 548.39334106 C1399.05650225 549.87239729 1402.46500524 551.3511465 1405.87353516 552.82983398 C1416.5896869 557.47914781 1427.30470719 562.13101936 1438.0151825 566.793396 C1442.81448073 568.88235236 1447.61447385 570.96970929 1452.41452026 573.0569458 C1454.69198782 574.04780577 1456.96911719 575.03944345 1459.24588013 576.03192139 C1466.15452274 579.04336616 1473.06878594 582.04082693 1480 585 C1481.04208618 585.4450589 1481.04208618 585.4450589 1482.10522461 585.89910889 C1492.99412155 590.50862934 1504.19114128 594.15924146 1515.40447998 597.88513184 C1586.63942059 621.62361404 1656.94911539 649.17222552 1725.28857422 680.31201172 C1728.53394646 681.79027028 1731.78508296 683.2554579 1735.03730774 684.71856689 C1777.64758587 703.90073026 1819.9785571 724.22549688 1860.48242188 747.56787109 C1863.71958252 749.40933583 1866.99348346 751.17766847 1870.27148438 752.94506836 C1884.15773855 760.44527335 1897.56260954 768.73338441 1911 777 C1913.01171072 778.23308601 1915.02342899 779.46615972 1917.03515625 780.69921875 C1926.1429728 786.29532886 1935.17429809 791.96542632 1944 798 C1945.43731697 798.9729267 1946.87483404 799.94555782 1948.3125 800.91796875 C1978.61581166 821.469209 2007.65754633 843.6759822 2034.49804688 868.61572266 C2036.02346663 870.02162805 2037.56413794 871.40889433 2039.109375 872.79296875 C2072.32592559 902.6980534 2101.08545647 940.00553512 2117 982 C2117.28143356 982.72798294 2117.56286713 983.45596588 2117.85282898 984.20600891 C2124.00471181 1000.68288237 2123.88838527 1017.19724548 2123.70343018 1034.50970459 C2123.68215127 1037.50220404 2123.70205885 1040.49389343 2123.72088146 1043.48636436 C2123.873121 1072.8841572 2123.873121 1072.8841572 2118 1087 C2117.45068632 1088.373748 2116.90187062 1089.74769522 2116.35351562 1091.12182617 C2114.71208402 1095.15558328 2112.89771499 1099.08100208 2111 1103 C2110.63777344 1103.75039551 2110.27554688 1104.50079102 2109.90234375 1105.27392578 C2094.9487399 1135.83376959 2071.73892593 1162.90812058 2046 1185 C2044.99168947 1185.88354655 2043.98391726 1186.76770766 2042.9765625 1187.65234375 C2033.96354543 1195.52602674 2024.60285855 1202.86104676 2015 1210 C2014.27796387 1210.5377002 2013.55592773 1211.07540039 2012.81201172 1211.62939453 C1984.54826969 1232.5862632 1954.22707654 1250.83114916 1923 1267 C1921.88689453 1267.5784668 1920.77378906 1268.15693359 1919.62695312 1268.75292969 C1843.928848 1307.89744326 1761.03306277 1332.29193088 1644.875 1346.75 C1643.87007507 1346.83888489 1643.87007507 1346.83888489 1642.84484863 1346.92956543 C1638.23286089 1347.33017271 1633.61766273 1347.67318226 1629 1348 C1627.12373098 1348.13397595 1627.12373098 1348.13397595 1625.20955753 1348.27065849 C1610.07993063 1349.24670046 1594.93473137 1349.14329655 1579.78158768 1349.13073178 C1575.65428108 1349.12841987 1571.52697832 1349.13193654 1567.39967251 1349.13462734 C1559.18865764 1349.13904083 1550.9776518 1349.13798829 1542.76663659 1349.13515103 C1535.88414336 1349.13291458 1529.00165311 1349.13293998 1522.1191597 1349.13438225 C1521.11826129 1349.13459061 1520.11736288 1349.13479898 1519.08613421 1349.13501366 C1517.04099659 1349.13544728 1514.99585897 1349.1358845 1512.95072135 1349.13632525 C1492.00155026 1349.14052758 1471.05238433 1349.13694883 1450.10321403 1349.13081557 C1434.73138367 1349.12632586 1419.35955397 1349.12341596 1403.98772306 1349.1217161 C1318.92300361 1349.11207139 1233.85828297 1349.07067918 647.23270072 1348.10970156 C640.41455359 1348.09633948 633.59640644 1348.08298625 626.77825928 1348.06964111 C626.03221571 1348.0681808 625.28617215 1348.0667205 624.51752121 1348.06521593 C592.60219459 1348.00275867 560.68686426 1347.9423439 528.77153277 1347.88243467 C432.67834548 1347.70204612 336.58516257 1347.51863361 -1.4609375 1346.71484375 C-2.4636132 1346.71190239 -3.46628889 1346.70896103 -4.4993487 1346.70593053 C-46.02110834 1346.58402336 -87.54284803 1346.45629076 -129.06456554 1346.32079661 C-203.02653225 1346.06131986 -203.02653225 1346.06131986 -276.98880386 1345.94627118 C-279.18646063 1345.94534424 -281.38411569 1345.94369624 -283.58177185 1345.94184685 C-304.87722807 1345.92598491 -326.15560616 1346.24326248 -347.4453125 1346.7109375 C-398.42547059 1347.82388521 -449.4035045 1348.10399064 -500.39425331 1348.12211341 C-504.81069643 1348.1237224 -509.22713564 1348.12662321 -513.64357704 1348.13082391 C-568.2270778 1348.18220756 -622.81270382 1347.75118038 -677.375 1346.125 C-678.81282314 1346.08314981 -680.25064874 1346.04138398 -681.68847656 1345.99969482 C-771.9002528 1343.36892334 -862.54660531 1339.45982462 -1039.39453125 1308.97265625 C-1044.33417988 1307.48105209 -1049.29080723 1306.06613695 -1054.26171875 1304.68359375 C-1120.63427413 1286.18715722 -1184.44691513 1259.00260223 -1235 1211 C-1235.53415527 1210.49452637 -1236.06831055 1209.98905273 -1236.61865234 1209.46826172 C-1244.91885914 1201.55778231 -1252.16408549 1193.19587147 -1259 1184 C-1259.63566895 1183.163479 -1259.63566895 1183.163479 -1260.28417969 1182.31005859 C-1273.4744519 1164.93762859 -1283.33039656 1145.32486769 -1290.3125 1124.6875 C-1290.65812988 1123.6675293 -1290.65812988 1123.6675293 -1291.01074219 1122.62695312 C-1291.72258947 1120.42973875 -1292.36432546 1118.2205214 -1293 1116 C-1293.25339142 1115.14160522 -1293.50678284 1114.28321045 -1293.76785278 1113.39880371 C-1296.41960756 1103.38182095 -1296.49137658 1093.67767061 -1296.50390625 1083.39453125 C-1296.51358173 1081.50241383 -1296.52367656 1079.61029852 -1296.53416443 1077.71818542 C-1296.55203742 1073.76202212 -1296.55769544 1069.80605428 -1296.5559082 1065.84985352 C-1296.55566559 1061.84780861 -1296.57631271 1057.84680244 -1296.61743164 1053.8449707 C-1297.04135348 1011.98673887 -1297.04135348 1011.98673887 -1290.79924011 991.6114502 C-1289.93606384 988.79109396 -1289.15434014 985.95515903 -1288.38208008 983.10864258 C-1279.49170076 950.66949182 -1264.34899363 919.52596948 -1247.49316406 890.57324219 C-1246.17403263 888.29991888 -1244.87546348 886.01675192 -1243.5859375 883.7265625 C-1230.53442353 860.76115995 -1214.96562186 839.00305082 -1199 818 C-1198.23171875 816.98550781 -1197.4634375 815.97101562 -1196.671875 814.92578125 C-1187.7370346 803.2096115 -1178.4396296 791.78622336 -1168.87646484 780.57763672 C-1166.08717058 777.3050137 -1163.37294782 773.98304617 -1160.6875 770.625 C-1156.402493 765.35173913 -1151.80695987 760.40618061 -1147.13549805 755.47705078 C-1144.25395557 752.43425411 -1141.42370379 749.36457578 -1138.6784668 746.19775391 C-1125.52009275 731.12500013 -1111.24514139 717.08702086 -1097.09106445 702.96069336 C-1094.13047922 700.00585784 -1091.1744816 697.04647958 -1088.21974277 694.08579922 C-1085.91113159 691.77355741 -1083.60012326 689.46372323 -1081.28840446 687.1545887 C-1080.1973764 686.06422022 -1079.10706974 684.97312934 -1078.01754951 683.8812542 C-1072.7178868 678.57262899 -1067.41220964 673.31887803 -1061.68296814 668.46888733 C-1059.87047081 666.88694748 -1058.18404938 665.21734789 -1056.5 663.5 C-1053.57869212 660.53284199 -1050.52008327 657.79941029 -1047.3671875 655.08203125 C-1044.36277451 652.439536 -1041.43265928 649.72159827 -1038.5 647 C-1031.03393823 640.08392436 -1023.35685374 633.44030176 -1015.62524414 626.82421875 C-1011.2355969 623.06613788 -1006.86396826 619.28785187 -1002.5 615.5 C-1000.61624655 613.86728394 -998.73223745 612.23486338 -996.84814453 610.60253906 C-995.63215486 609.54814591 -994.4169628 608.49283208 -993.20263672 607.43652344 C-986.33072482 601.46177255 -979.37496669 595.65548208 -972.17944336 590.07373047 C-968.20083559 586.97697046 -964.3288593 583.77963768 -960.5 580.5 C-955.57741241 576.2877737 -950.55064722 572.24093753 -945.43701172 568.26342773 C-940.94398922 564.76247547 -936.52894261 561.17457831 -932.125 557.5625 C-926.2381432 552.74765663 -920.24173336 548.11685056 -914.13452148 543.58569336 C-909.0923311 539.83966444 -904.13104574 536.00001893 -899.1875 532.125 C-892.29587601 526.7338759 -885.30875799 521.49157682 -878.24902344 516.32299805 C-872.44426352 512.07245016 -866.68354109 507.76702091 -860.9375 503.4375 C-852.43487088 497.04077757 -843.84142155 490.78117845 -835.19580078 484.57958984 C-833.01998034 483.01437323 -830.85077194 481.4404372 -828.68359375 479.86328125 C-818.4487301 472.4215197 -808.09673146 465.15998808 -797.6953125 457.953125 C-794.1810957 455.51776217 -790.67424075 453.0728678 -787.1796875 450.609375 C-752.67221924 426.28408321 -717.39649619 403.00645565 -682 380 C-680.81180664 379.2265625 -680.81180664 379.2265625 -679.59960938 378.4375 C-667.45682571 370.53556474 -655.23492371 362.7582971 -643 355 C-642.19304688 354.48824219 -641.38609375 353.97648437 -640.5546875 353.44921875 C-635.04286851 349.95594216 -629.52401186 346.47396143 -624 343 C-622.61989746 342.13205811 -622.61989746 342.13205811 -621.21191406 341.24658203 C-607.48840499 332.62410999 -593.69729076 324.12121842 -579.83691406 315.72070312 C-576.09923155 313.4536475 -572.36578294 311.17967666 -568.63256836 308.90527344 C-565.77529291 307.16483624 -562.91701681 305.42605167 -560.05859375 303.6875 C-555.81896358 301.10849029 -551.58266051 298.52409807 -547.34765625 295.9375 C-532.48120021 286.86595692 -517.52160328 277.968662 -502.47666931 269.19651794 C-498.19339313 266.69869631 -493.9155091 264.19184205 -489.640625 261.6796875 C-473.80497853 252.37524207 -457.92958887 243.14301847 -442 234 C-440.86175781 233.34644531 -439.72351563 232.69289062 -438.55078125 232.01953125 C-423.10880645 223.15668404 -407.6159244 214.38911844 -392.06787109 205.71337891 C-387.95344183 203.41550651 -383.84326365 201.11008419 -379.73291016 198.80493164 C-359.47464394 187.44725324 -339.19239869 176.14010231 -318.75390625 165.109375 C-313.20082559 162.11214847 -307.66187373 159.08953125 -302.125 156.0625 C-290.91618855 149.9405237 -279.67383515 143.88153187 -268.42236328 137.83837891 C-265.51897864 136.27877794 -262.61629414 134.71788279 -259.71382141 133.15658569 C-245.39573673 125.45663739 -231.03114321 117.8527021 -216.60498047 110.35693359 C-212.56288752 108.25140851 -208.53124572 106.12619878 -204.5 104 C-185.93892548 94.21773278 -167.31843774 84.54854132 -148.68408203 74.90673828 C-146.17668439 73.60931699 -143.66991404 72.31069401 -141.16357422 71.01123047 C-124.43627508 62.34037028 -107.65284488 53.79542581 -90.78640747 45.39819336 C-82.4807174 41.26208459 -74.18808873 37.11599733 -66 32.75 C-47.8102395 23.0532681 -29.25594072 14.03637097 -10.6328125 5.20703125 C-7.06523827 3.51490401 -3.52227516 1.78438692 0 0 Z " fill="#050506" transform="translate(1296,0)"/>
<path d="M0 0 C4.56051318 2.83509647 8.16593547 5.94754637 11.875 9.8125 C15.8470074 13.87295167 19.87950511 17.74069198 24.20703125 21.42578125 C26.66720175 23.58580023 28.92964924 25.91930274 31.22265625 28.25390625 C33.06593574 30.06477643 34.97822799 31.75321354 36.9375 33.4375 C39.74576347 35.85617779 42.39970593 38.35899683 45 41 C47.58009215 43.62040609 50.21103607 46.10323412 53 48.5 C56.51141648 51.51762353 59.75307402 54.73359081 63 58.03125 C64.93891002 59.93986455 66.93699551 61.72710552 69 63.5 C72.51001511 66.51641923 75.75051276 69.73095132 78.99609375 73.02734375 C81.58246151 75.57337829 84.3153528 77.92021557 87.06640625 80.28515625 C89.56569138 82.50169397 91.88281884 84.87162281 94.22265625 87.25390625 C96.06593574 89.06477643 97.97822799 90.75321354 99.9375 92.4375 C102.74576347 94.85617779 105.39970593 97.35899683 108 100 C110.58009215 102.62040609 113.21103607 105.10323412 116 107.5 C119.51141648 110.51762353 122.75307402 113.73359081 126 117.03125 C127.93891002 118.93986455 129.93699551 120.72710552 132 122.5 C135.50861373 125.51521492 138.74795164 128.72831166 141.9921875 132.0234375 C144.59202058 134.58280625 147.33615647 136.946844 150.1015625 139.32421875 C152.86402294 141.76268691 155.42741059 144.36309585 158 147 C156.63081968 151.87724231 154.43057672 155.69596636 151.5625 159.8125 C150.65512233 161.14376334 149.74891533 162.47582519 148.84375 163.80859375 C148.37453125 164.49679199 147.9053125 165.18499023 147.421875 165.89404297 C145.08504069 169.35515779 142.82358075 172.86410818 140.5625 176.375 C140.10560791 177.08309814 139.64871582 177.79119629 139.17797852 178.52075195 C138.2486805 179.9612046 137.31972592 181.40187886 136.39111328 182.84277344 C134.09846738 186.39802426 131.79891627 189.94880194 129.5 193.5 C128.58329958 194.91664483 127.66663293 196.3333115 126.75 197.75 C110.25 223.25 110.25 223.25 108.8762207 225.37304688 C107.95540411 226.79617161 107.03466902 228.21934907 106.11401367 229.64257812 C103.88649091 233.08586371 101.65777601 236.52836128 99.42578125 239.96875 C94.63410786 247.35880776 89.86941635 254.76504297 85.13452148 262.19165039 C82.41254267 266.45566693 79.67927248 270.71237329 76.94384766 274.96777344 C75.68336575 276.93401123 74.42753719 278.90324295 73.17724609 280.87597656 C71.54749794 283.44654854 69.90116314 286.0056509 68.25 288.5625 C67.77312744 289.32425537 67.29625488 290.08601074 66.80493164 290.87084961 C65.453125 292.94140625 65.453125 292.94140625 63 296 C58.09188634 296 56.6700868 294.28965781 53.375 291.0625 C52.29863175 290.04118727 51.22180259 289.02036011 50.14453125 288 C49.61166504 287.48953125 49.07879883 286.9790625 48.52978516 286.453125 C46.41439477 284.44374045 44.24146809 282.50253051 42.0625 280.5625 C37.60713196 276.56482627 33.20916481 272.50799115 28.81665039 268.44165039 C25.56634649 265.43603927 22.29702925 262.45448076 19 259.5 C14.56379505 255.52469946 10.18745602 251.48792332 5.81640625 247.44140625 C2.56616903 244.43589278 -0.7030565 241.45440391 -4 238.5 C-8.43620495 234.52469946 -12.81254398 230.48792332 -17.18359375 226.44140625 C-20.43383097 223.43589278 -23.7030565 220.45440391 -27 217.5 C-31.43620495 213.52469946 -35.81254398 209.48792332 -40.18359375 205.44140625 C-43.43383097 202.43589278 -46.7030565 199.45440391 -50 196.5 C-53.86662672 193.03510073 -57.69009639 189.52691063 -61.5 186 C-66.95624275 180.95045347 -72.46216827 175.96004833 -78 171 C-79.87538476 169.31292761 -81.75039225 167.62543573 -83.625 165.9375 C-84.46289062 165.18339844 -85.30078125 164.42929688 -86.1640625 163.65234375 C-86.76992187 163.10707031 -87.37578125 162.56179688 -88 162 C-91.0495133 164.84651746 -93.21775434 167.69843824 -95.36328125 171.26953125 C-95.99532471 172.31173828 -96.62736816 173.35394531 -97.27856445 174.42773438 C-97.94976318 175.54470703 -98.62096191 176.66167969 -99.3125 177.8125 C-100.74542622 180.17597688 -102.18408427 182.53591796 -103.625 184.89453125 C-104.17170097 185.78992111 -104.17170097 185.78992111 -104.72944641 186.70339966 C-108.30917164 192.54428818 -112.04367664 198.27955152 -115.8125 204 C-120.68230071 211.40181959 -125.42462863 218.85741602 -130.01123047 226.43774414 C-134.72789911 234.22977868 -139.60413332 241.91829498 -144.48388672 249.60888672 C-146.4946164 252.78007617 -148.49953861 255.95491369 -150.50390625 259.13012695 C-151.4969563 260.70315842 -152.4904421 262.27591489 -153.484375 263.84838867 C-156.07811623 267.95216724 -158.66615698 272.0594018 -161.24609375 276.171875 C-161.78041016 277.02201172 -162.31472656 277.87214844 -162.86523438 278.74804688 C-163.87999519 280.36284017 -164.89313581 281.97865328 -165.90429688 283.59570312 C-168.78951344 288.18235478 -171.80821826 292.62071326 -175 297 C-178.92599805 295.38286271 -181.71475651 292.69118195 -184.75 289.8125 C-185.31219238 289.28640137 -185.87438477 288.76030273 -186.45361328 288.21826172 C-187.6698829 287.07902583 -188.88416786 285.93766816 -190.09667969 284.79443359 C-192.0214378 282.97978863 -193.95137303 281.1708116 -195.8828125 279.36328125 C-198.5775506 276.84069591 -201.2701043 274.31581267 -203.9609375 271.7890625 C-207.80029244 268.18518309 -211.64876081 264.59117133 -215.5 261 C-220.67409982 256.17456287 -225.84003453 251.34054795 -231 246.5 C-238.03626754 239.89972048 -245.08591077 233.31391643 -252.14111328 226.73388672 C-255.88748425 223.23943878 -259.63231217 219.74333722 -263.37744141 216.24755859 C-266.48941172 213.34289101 -269.60173064 210.43859902 -272.71484375 207.53515625 C-279.82513183 200.90287073 -286.92542312 194.26010298 -294.01708984 187.60791016 C-297.90693812 183.95993731 -301.79967111 180.3151127 -305.69897461 176.67724609 C-306.93151496 175.52657368 -308.1628192 174.37457563 -309.39282227 173.22119141 C-312.65703519 170.16427839 -315.94615253 167.14058545 -319.2734375 164.15234375 C-320.31842407 163.20403687 -320.31842407 163.20403687 -321.38452148 162.23657227 C-322.72495739 161.02110981 -324.07314556 159.81412711 -325.42993164 158.61694336 C-326.32893188 157.79722046 -326.32893188 157.79722046 -327.24609375 156.9609375 C-327.77904053 156.48446777 -328.3119873 156.00799805 -328.86108398 155.51708984 C-330 154 -330 154 -330 150 C-328.74387074 147.67193351 -327.44636901 145.51796027 -326 143.3125 C-325.56139648 142.62752441 -325.12279297 141.94254883 -324.67089844 141.23681641 C-323.67699855 139.68650825 -322.67900301 138.13882099 -321.67773438 136.59326172 C-319.86333715 133.78876124 -318.06333663 130.97537999 -316.265625 128.16015625 C-313.54292359 123.89725279 -310.8162257 119.63695459 -308.0859375 115.37890625 C-304.33760894 109.53063174 -300.60267065 103.67395892 -296.875 97.8125 C-296.30410645 96.91490967 -295.73321289 96.01731934 -295.14501953 95.0925293 C-293.42974564 92.39518941 -291.71480715 89.69763662 -290 87 C-282.68308149 75.48944192 -275.35572327 63.98580997 -268 52.5 C-257.25326521 35.71664706 -246.52332644 18.92461257 -236 2 C-232.99483292 3.36696681 -230.71787681 4.94534272 -228.26171875 7.14453125 C-227.21636963 8.07966553 -227.21636963 8.07966553 -226.14990234 9.03369141 C-222.67012754 12.21630625 -219.23325825 15.44163527 -215.8125 18.6875 C-210.69148278 23.52742457 -205.56100543 28.35471945 -200.375 33.125 C-195.7313222 37.39689312 -191.10929858 41.69102732 -186.5 46 C-181.84743476 50.34880174 -177.1840551 54.68513151 -172.5 59 C-167.1735933 63.90659139 -161.87656925 68.84394139 -156.5859375 73.7890625 C-152.57030049 77.54029543 -148.54169247 81.27686457 -144.5 85 C-139.1735933 89.90659139 -133.87656925 94.84394139 -128.5859375 99.7890625 C-124.04768021 104.0285045 -119.4922774 108.24871449 -114.9206543 112.45214844 C-111.99839966 115.14246391 -109.09376737 117.84969611 -106.20703125 120.578125 C-99.35807737 127.04186276 -92.51483999 133.30640358 -85 139 C-84.72631592 138.27143799 -84.45263184 137.54287598 -84.1706543 136.79223633 C-83.05125446 134.12225179 -81.77985618 131.79011222 -80.26953125 129.32421875 C-79.72184082 128.42662842 -79.17415039 127.52903809 -78.60986328 126.60424805 C-78.0167334 125.64172119 -77.42360352 124.67919434 -76.8125 123.6875 C-76.19101074 122.67276611 -75.56952148 121.65803223 -74.92919922 120.61254883 C-69.91510516 112.44313099 -64.83807061 104.31329167 -59.74707031 96.19165039 C-53.11149224 85.60116544 -46.56895297 74.95408932 -40.02929688 64.30419922 C-34.02725438 54.53138363 -28.0152579 44.76468571 -22 35 C-21.39994141 34.02562988 -20.79988281 33.05125977 -20.18164062 32.04736328 C-13.55749865 21.29691755 -6.8850859 10.58559719 0 0 Z " fill="#050506" transform="translate(1827,1475)"/>
<path d="M0 0 C4.62443815 0.57267777 8.23296734 1.83859386 12.42578125 3.8515625 C13.03701843 4.14193893 13.64825562 4.43231537 14.27801514 4.73149109 C15.59930518 5.35993958 16.919033 5.9916811 18.23733521 6.62637329 C21.83294465 8.35668003 25.44076611 10.06124457 29.046875 11.76953125 C29.79224014 12.12341415 30.53760529 12.47729706 31.30555725 12.84190369 C38.85216665 16.41892079 46.45212203 19.87379402 54.0625 23.3125 C66.23421558 28.8196449 78.37479827 34.39120864 90.5 40 C102.52376758 45.5607664 114.55986622 51.09203828 126.625 56.5625 C139.77482609 62.52492152 152.90135078 68.53666166 166.0168457 74.57421875 C173.85697266 78.18246983 181.7019514 81.77939609 189.55859375 85.3515625 C191.12777927 86.06580946 192.6969526 86.78008322 194.26611328 87.49438477 C196.49413741 88.5085209 198.72253597 89.52176692 200.95257568 90.53146362 C211.09078066 95.12177867 221.07729192 99.96053718 231 105 C230.69521729 105.98427979 230.39043457 106.96855957 230.07641602 107.98266602 C228.57160784 112.8425582 227.06702708 117.70252078 225.5625 122.5625 C225.27611664 123.48756348 224.98973328 124.41262695 224.69467163 125.36572266 C221.12148398 136.90822607 217.55071799 148.45147355 213.984375 159.99609375 C204.83911277 189.59942282 195.67060986 219.19544701 186.48216248 248.78540039 C183.60830432 258.04024884 180.73551885 267.29542976 177.86328125 276.55078125 C177.65241693 277.23025881 177.44155262 277.90973637 177.22429848 278.60980415 C176.18141064 281.97036481 175.13853769 285.33093009 174.09567261 288.6914978 C172.16543439 294.91154735 170.23505269 301.13155236 168.3046875 307.3515625 C167.6586908 309.43310528 167.01269464 311.51464823 166.36669922 313.59619141 C165.91113281 315.0641276 165.45556641 316.5320638 165 318 C160.99060112 317.266566 157.81877355 316.10568211 154.15234375 314.296875 C153.00556152 313.73605225 151.8587793 313.17522949 150.67724609 312.59741211 C150.06967468 312.29721161 149.46210327 311.99701111 148.83612061 311.68771362 C145.55447069 310.06693282 142.26334178 308.46561679 138.97265625 306.86328125 C137.96144714 306.3702224 137.96144714 306.3702224 136.92980957 305.86720276 C130.62022429 302.79842833 124.25297933 299.86115772 117.875 296.9375 C104.6975648 290.87693133 91.68256742 284.49753812 78.66253662 278.10739136 C67.82479278 272.79053494 56.97598003 267.52675821 46 262.5 C33.11428676 256.59862585 20.40144888 250.36077556 7.67984009 244.11553955 C-4.68919315 238.04588161 -17.09913764 232.10175572 -29.62207031 226.35668945 C-40.206395 221.48599097 -50.62176763 216.2936706 -61 211 C-60.42366599 205.44034996 -59.410001 200.34111136 -57.8046875 194.99536133 C-57.58083972 194.2316604 -57.35699194 193.46795948 -57.12636089 192.6811161 C-56.38178463 190.14631519 -55.62839962 187.61422235 -54.875 185.08203125 C-54.33870869 183.26269972 -53.80298165 181.44320177 -53.26777649 179.62355042 C-51.8203374 174.70794651 -50.36534542 169.79460768 -48.90896988 164.8816452 C-47.38435301 159.73376225 -45.86662534 154.58384953 -44.34838867 149.43408203 C-42.14772782 141.97162121 -39.94488718 134.50981024 -37.73942471 127.04876709 C-34.07427053 114.64876169 -30.42397431 102.2444602 -26.78433609 89.83694267 C-25.93130745 86.9289949 -25.07799218 84.0211314 -24.22457886 81.11329651 C-23.80884015 79.69672902 -23.80884015 79.69672902 -23.38470268 78.251544 C-23.11015314 77.31606133 -22.8356036 76.38057867 -22.55273438 75.41674805 C-20.95094718 69.9588471 -19.34935736 64.50088872 -17.7487793 59.04263306 C-11.96417932 39.31983246 -6.12388052 19.62073601 0 0 Z " fill="#050506" transform="translate(423,1499)"/>
<path d="M0 0 C5.94 -0.165 11.88 -0.33 18 -0.5 C19.85882813 -0.57283203 21.71765625 -0.64566406 23.6328125 -0.72070312 C35.32522225 -0.98777387 35.32522225 -0.98777387 39.85620117 1.68457031 C41.87019457 3.68722184 43.42322653 5.64565838 45 8 C46.08995684 9.26240965 47.1923652 10.51428884 48.3125 11.75 C48.87195313 12.40226562 49.43140625 13.05453125 50.0078125 13.7265625 C51.56160104 15.49970942 53.1358839 17.23621698 54.7421875 18.9609375 C55.22776123 19.48333008 55.71333496 20.00572266 56.21362305 20.54394531 C57.17003155 21.56990216 58.12965042 22.59287916 59.09301758 23.61230469 C62.14382328 26.89212677 64.61293677 30.2321297 67 34 C70.24587407 30.8386539 73.19493701 27.61813648 76 24.0625 C80.2953744 18.74028526 84.86931186 13.73743123 89.5703125 8.77172852 C90.10140625 8.20897217 90.6325 7.64621582 91.1796875 7.06640625 C91.88714111 6.3230603 91.88714111 6.3230603 92.60888672 5.56469727 C94.10800901 4.00239683 94.10800901 4.00239683 95.15209961 1.83276367 C97.61605682 -0.61101051 99.6479794 -0.45480273 103.0123291 -0.45263672 C104.18765198 -0.42194092 104.18765198 -0.42194092 105.38671875 -0.390625 C106.47321716 -0.38458252 106.47321716 -0.38458252 107.58166504 -0.37841797 C110.28386821 -0.35751117 112.98570989 -0.30166515 115.6875 -0.25 C121.730625 -0.1675 127.77375 -0.085 134 0 C134 18.81 134 37.62 134 57 C124.1 57 114.2 57 104 57 C103.95875 52.565625 103.9175 48.13125 103.875 43.5625 C103.85679199 42.18263916 103.83858398 40.80277832 103.81982422 39.38110352 C103.78935976 32.58408886 104.18718977 26.55894725 106 20 C99.24474192 27.37695283 99.24474192 27.37695283 92.625 34.875 C92.06425781 35.49117188 91.50351562 36.10734375 90.92578125 36.7421875 C89.35766185 38.58067232 87.9933723 40.41278007 86.60546875 42.3828125 C82.55456623 47.80448604 79.03305452 51.99808572 72.09375 53.1484375 C65.67120895 53.65563761 59.60936528 53.52268874 53.9609375 50.2265625 C51.64851996 47.96182367 49.8402033 45.65807143 48 43 C46.89017956 41.71588905 45.76550498 40.44443705 44.625 39.1875 C43.80322266 38.23037109 43.80322266 38.23037109 42.96484375 37.25390625 C40.41934557 34.33392126 37.80683846 31.47870928 35.1875 28.625 C34.46651123 27.83838989 34.46651123 27.83838989 33.73095703 27.03588867 C31.85102102 24.9901152 29.96484205 22.96484205 28 21 C28.32742188 22.0209375 28.65484375 23.041875 28.9921875 24.09375 C30.58668976 30.47175902 30.21057931 36.97173781 30.125 43.5 C30.08375 47.955 30.0425 52.41 30 57 C20.1 57 10.2 57 0 57 C0 38.19 0 19.38 0 0 Z " fill="#000000" transform="translate(250,332)"/>
<path d="M0 0 C36.63 0 73.26 0 111 0 C111 3.63 111 7.26 111 11 C98.13 11 85.26 11 72 11 C72 26.18 72 41.36 72 57 C61.11 57 50.22 57 39 57 C39 41.82 39 26.64 39 11 C26.13 11 13.26 11 0 11 C0 7.37 0 3.74 0 0 Z " fill="#000000" transform="translate(118,332)"/>
</svg>
