<?xml version="1.0" encoding="UTF-8"?>
<svg id="Layer_1" data-name="Layer 1" xmlns="http://www.w3.org/2000/svg" viewBox="0 0 1214.85 203.91">
  <defs>
    <style>
      .cls-1 {
        fill: #fff;
      }
    </style>
  </defs>
  <path class="cls-1" d="M318.54,1.22v47.71H60.78v29.48h258.97v44.67H60.78v32.21h258.97v48.62H0V1.22h318.54Z"/>
  <path class="cls-1" d="M420.14,1.22v73.54h128L628.37,0h94.51l-117.3,100.59,127.03,103.32h-93.6l-90.86-77.49h-128v77.49h-61.69V1.22h61.69Z"/>
  <path class="cls-1" d="M829.65,1.22v202.7h-64.73V1.22h64.73Z"/>
  <path class="cls-1" d="M877.47,1.22h233.14c36.47,0,42.54.3,52.88,1.52,40.11,5.47,51.36,21.58,51.36,74.45,0,44.06-7.6,61.69-31,70.81-13.68,5.17-27.65,6.38-72.63,6.38h-172.06v49.53h-61.69V1.22ZM1110.61,103.63c27.96-.3,29.17-.3,34.34-3.04,6.08-3.34,8.21-8.81,8.21-23.4s-2.43-20.06-10.03-23.1c-4.25-1.82-4.86-1.82-32.52-2.13h-171.45v51.66h171.45Z"/>
</svg>