<?xml version="1.0" encoding="UTF-8"?>
<svg id="Layer_1" data-name="Layer 1" xmlns="http://www.w3.org/2000/svg" viewBox="0 0 838.95 178.46">
  <defs>
    <style>
      .cls-1 {
        fill: #fff;
      }
    </style>
  </defs>
  <g>
    <polygon class="cls-1" points="72.78 178.46 80.82 163.47 67.49 154.39 60.3 168.33 72.78 178.46"/>
    <polygon class="cls-1" points="695.08 167.31 703.12 152.92 690.42 143.39 683.23 155.67 669.9 146.36 662.08 160.29 675.4 169.79 682.17 158.42 695.08 167.31"/>
    <path class="cls-1" d="M14.6,131.33c9.74,6.63,22.5,9.94,38.3,9.94,11,0,22.28-1.69,33.85-5.08,11.57-3.38,23.06-7.97,34.48-13.75,2.26,4.51,4.05,7.41,5.4,8.67,1.34,1.27,4.76,1.91,10.26,1.91h2.12v.21l523.7,1.49c7.2,0,11.64-.89,13.33-2.69,1.69-1.79,4.16-5.2,7.41-10.22,3.24,6.02,5.25,9.54,6.03,10.54.77,1.01,4.34,1.79,10.68,2.37h24.12v-.21h6.35c13.4,0,23.45-2.01,30.15-6.03,6.69-4.02,10.05-10.97,10.05-20.85,0-11.85-4.16-21.8-12.48-29.85-8.33-8.04-17.85-15.03-28.56-20.96,0-1.13,1.06-2.22,3.18-3.28,2.11-1.05,10.54-4.13,25.28-9.21,14.74-5.08,27.61-9.38,38.61-12.91,2.82-6.63,5.64-13.26,8.47-19.9-12.41,4.24-25.39,8.61-38.93,13.13-13.54,4.51-24.01,9.14-31.42,13.86-7.41,4.73-11.11,10.48-11.11,17.25v2.96c0,4.8.32,9.25.96,13.34.63,4.09,1.86,6.92,3.7,8.47,8.47,4.51,16.93,8.96,25.39,13.34,7.05,4.24,10.58,7.62,10.58,10.16,0,1.83-2.83,3.53-8.47,5.08-5.64,1.55-12.56,2.32-20.73,2.32h-30.47v.21s-4.24,0-4.24,0c-4.23-1.04-6.6-1.9-7.09-2.57-.5-.67-1.16-3.69-2.01-9.06h-1.27c-4.09,5.6-7.37,8.94-9.83,10.02-2.41,1.05-539.05-.08-539.05-.08-6.77,0-10.97-.64-12.59-1.9-1.62-1.27-2.78-4.23-3.49-8.89l-1.91-.63c-4.38,5.92-10.76,10.54-19.15,13.85-8.39,3.32-22.6,4.97-42.63,4.97-16.22,0-29.09-2.61-38.62-7.83-9.52-5.21-14.28-12.48-14.28-21.79,0-2.12.49-4.24,1.48-6.35.99-2.12,2.33-4.79,4.02-8.04l-2.54-1.06c-4.09,6.21-7.06,11.43-8.88,15.66-1.84,4.23-2.75,9.45-2.75,15.66,0,11.84,4.87,21.08,14.6,27.71Z"/>
    <path class="cls-1" d="M820.12,40.36c0,3.39,1.13,13.5,3.38,30.33,2.26,16.82,3.92,29.76,4.97,38.81,1.06,9.05,1.59,17.39,1.59,25.02h3.6c1.55-3.96,2.82-9.29,3.81-16.01.98-6.71,1.48-12.4,1.48-17.07-1.69-16.82-3.28-33.4-4.76-49.73-1.48-16.33-2.22-27.11-2.22-32.34-1.42,1.7-3.6,4.03-6.56,7-3.53,4.24-5.29,8.91-5.29,14Z"/>
  </g>
  <g>
    <path class="cls-1" d="M680.88,78.21c1.64,1.64,2.46,3.62,2.46,5.94s-.84,4.4-2.52,6.03c-1.64,1.58-3.6,2.37-5.89,2.37s-4.36-.81-5.98-2.43c-1.62-1.62-2.43-3.61-2.43-5.98s.87-4.5,2.62-6.13c1.64-1.52,3.57-2.28,5.78-2.28s4.3.82,5.94,2.46ZM674.94,77.18c-1.93,0-3.58.7-4.94,2.1-1.34,1.37-2.01,2.99-2.01,4.87s.68,3.6,2.04,4.96c1.35,1.36,2.99,2.04,4.91,2.04s3.54-.68,4.89-2.05c1.35-1.38,2.03-3.03,2.03-4.95s-.67-3.49-2.02-4.87c-1.36-1.4-3-2.1-4.91-2.1ZM673.7,85.53v3.3h-2.44v-9.32c.58,0,1.44,0,2.6,0,1.15,0,1.79,0,1.92.02.74.05,1.35.21,1.84.48.83.46,1.24,1.2,1.24,2.22,0,.78-.22,1.35-.66,1.7-.44.35-.98.56-1.61.63.59.12,1.03.3,1.32.54.55.44.82,1.14.82,2.09v.83c0,.09,0,.18.02.27.01.09.03.18.06.27l.08.26h-2.33c-.08-.3-.13-.73-.15-1.29-.02-.56-.07-.94-.15-1.14-.12-.33-.35-.56-.68-.68-.18-.08-.46-.13-.83-.15l-.54-.03h-.51ZM674.64,83.85c.57,0,1.02-.11,1.33-.34.32-.23.48-.6.48-1.11s-.25-.86-.75-1.06c-.33-.13-.81-.19-1.41-.19h-.59v2.7h.95Z"/>
    <g>
      <path class="cls-1" d="M279.6.55v21.66h-117v13.38h117.55v20.28h-117.55v14.62h117.55v22.07h-145.14V.55h144.59Z"/>
      <path class="cls-1" d="M325.72.55v33.38h58.1L420.24,0h42.9l-53.25,45.66,57.66,46.9h-42.49l-41.24-35.17h-58.1v35.17h-28V.55h28Z"/>
      <path class="cls-1" d="M511.6.55v92.01h-29.38V.55h29.38Z"/>
      <path class="cls-1" d="M533.31.55h105.83c16.55,0,19.31.14,24,.69,18.21,2.48,23.31,9.79,23.31,33.8,0,20-3.45,28-14.07,32.14-6.21,2.34-12.55,2.9-32.97,2.9h-78.1v22.48h-28V.55ZM639.13,47.04c12.69-.14,13.24-.14,15.59-1.38,2.76-1.52,3.72-4,3.72-10.62s-1.1-9.1-4.55-10.48c-1.93-.83-2.21-.83-14.76-.97h-77.82v23.45h77.82Z"/>
    </g>
  </g>
</svg>